<svg t="1577098005245" class="icon" viewBox="0 0 1024 1024" version="1.1" xmlns="http://www.w3.org/2000/svg" p-id="9807" width="200" height="200"><path d="M170.368 348.050286a58.038857 58.038857 0 0 0-58.368 58.368v243.181714a58.038857 58.038857 0 0 0 58.368 58.368 58.038857 58.038857 0 0 0 58.386286-58.368V406.418286a58.038857 58.038857 0 0 0-58.386286-58.368z m680.886857 0a58.038857 58.038857 0 0 0-58.386286 58.368v243.181714a58.038857 58.038857 0 0 0 58.386286 58.368 58.038857 58.038857 0 0 0 58.368-58.368V406.418286a58.038857 58.038857 0 0 0-58.368-58.368zM413.531429 625.536a58.038857 58.038857 0 0 0-58.368 58.386286V927.085714a58.038857 58.038857 0 0 0 58.368 58.386286 58.038857 58.038857 0 0 0 58.386285-58.386286V683.922286a58.038857 58.038857 0 0 0-58.386285-58.386286z m194.56 0a58.038857 58.038857 0 0 0-58.386286 58.386286V927.085714a58.038857 58.038857 0 0 0 58.368 58.386286 58.038857 58.038857 0 0 0 58.386286-58.386286V683.922286a58.038857 58.038857 0 0 0-58.386286-58.386286z" p-id="9808"></path><path d="M349.165714 41.673143a8.118857 8.118857 0 0 0-3.931428 1.060571 8.045714 8.045714 0 0 0-3.218286 11.264l41.142857 74.294857c-79.140571 41.179429-132.571429 119.405714-132.681143 209.188572h520.667429c-0.109714-89.782857-53.558857-168.009143-132.681143-209.188572l41.142857-74.294857a8.045714 8.045714 0 0 0-3.236571-11.264 8.173714 8.173714 0 0 0-11.264 3.218286L623.451429 121.051429a277.504 277.504 0 0 0-112.64-23.588572c-40.338286 0-78.573714 8.484571-112.64 23.588572l-41.673143-75.099429a8.173714 8.173714 0 0 0-7.314286-4.278857zM250.477714 358.034286v377.362285a62.793143 62.793143 0 0 0 62.939429 62.939429h394.788571a62.793143 62.793143 0 0 0 62.939429-62.939429V358.052571H250.477714z" p-id="9809"></path><path d="M390.656 198.747429c-11.885714 0-21.723429 9.837714-21.723429 21.723428 0 11.885714 9.837714 21.723429 21.723429 21.723429 11.885714 0 21.723429-9.837714 21.723429-21.723429 0-11.885714-9.837714-21.723429-21.723429-21.723428z m240.310857 0c-11.885714 0-21.723429 9.837714-21.723428 21.723428 0 11.885714 9.837714 21.723429 21.723428 21.723429 11.885714 0 21.723429-9.837714 21.723429-21.723429 0-11.885714-9.837714-21.723429-21.723429-21.723428z" p-id="9810"></path></svg>