<svg t="1577094087572" class="icon" viewBox="0 0 1024 1024" version="1.1" xmlns="http://www.w3.org/2000/svg" p-id="908" width="200" height="200"><path d="M841.13635555 481.41653333l-232.04598556-291.27111111a48.54518557 48.54518557 0 0 0-68.44871111-7.28177777 48.54518557 48.54518557 0 0 0-7.28177778 68.4487111L740.64782222 512l-217.48243001 260.68764445a48.54518557 48.54518557 0 0 0 6.31087446 68.4487111A48.54518557 48.54518557 0 0 0 560.54518557 851.81629667a48.54518557 48.54518557 0 0 0 37.37979221-17.47626666l242.72592555-291.27111111a48.54518557 48.54518557 0 0 0 0.48545222-61.65238557z" p-id="909"></path><path d="M269.27407445 190.14542222a48.54518557 48.54518557 0 0 0-78.1577489 61.16693333L400.83152555 512l-217.48242888 260.20219221a48.54518557 48.54518557 0 0 0 6.31087332 68.44871112A48.54518557 48.54518557 0 0 0 220.72888889 851.81629667a48.54518557 48.54518557 0 0 0 37.37979221-17.47626666l242.72592669-291.27111111a48.54518557 48.54518557 0 0 0 0-61.65238557z" p-id="910"></path></svg>