<svg t="1576650137961" class="icon" viewBox="0 0 1024 1024" version="1.1" xmlns="http://www.w3.org/2000/svg" p-id="4688" width="200" height="200"><path d="M512 928a31.904 31.904 0 0 1-22.624-9.376l-96-96a31.968 31.968 0 1 1 45.248-45.248L512 850.752l73.376-73.376A31.872 31.872 0 0 1 608 768h224a32 32 0 0 0 32-32V224c0-17.632-14.336-32-32-32H192c-17.632 0-32 14.368-32 32v512c0 17.664 14.368 32 32 32h96a32 32 0 1 1 0 64H192c-52.928 0-96-43.072-96-96V224c0-52.928 43.072-96 96-96h640c52.928 0 96 43.072 96 96v512c0 52.928-43.072 96-96 96h-210.752l-86.624 86.624A31.904 31.904 0 0 1 512 928z m-176-416c-26.464 0-48-21.536-48-48s21.536-48 48-48 48 21.536 48 48-21.536 48-48 48z m192 0c-26.464 0-48-21.536-48-48s21.536-48 48-48 48 21.536 48 48-21.536 48-48 48z m192 0c-26.464 0-48-21.536-48-48s21.536-48 48-48 48 21.536 48 48-21.536 48-48 48z" p-id="4689"></path></svg>