<svg t="1577092777847" class="icon" viewBox="0 0 1024 1024" version="1.1" xmlns="http://www.w3.org/2000/svg" p-id="4896" width="200" height="200"><path d="M792.832 485.856a32 32 0 0 0-45.248-0.032L544 688.992V128a32 32 0 0 0-64 0v563.04l-234.048-235.456a31.968 31.968 0 1 0-45.376 45.12l287.52 289.248c3.168 3.2 6.88 5.536 10.816 7.136A31.84 31.84 0 0 0 512 800a31.424 31.424 0 0 0 26.4-14.976l254.368-253.952a31.936 31.936 0 0 0 0.064-45.216zM864 928H160a32 32 0 1 1 0-64h704a32 32 0 1 1 0 64z" p-id="4897"></path></svg>