<svg t="1577694137090" class="icon" viewBox="0 0 1024 1024" version="1.1" xmlns="http://www.w3.org/2000/svg" p-id="1347" width="200" height="200"><path d="M120.57411781 317.74117625a31.65176437 31.65176437 0 0 0-11.74588219 46.7576475c52.32 73.10117625 177.09176437 251.74588219 402.97411688 251.74588219s350.6823525-178.64470594 403.00235344-251.74588219a31.68 31.68 0 0 0-11.74588219-46.7576475 31.62352969 31.62352969 0 0 0-39.52941187 9.28941188c-45.99529406 61.21411781-154.08 232.74352969-351.72705938 232.74352968-197.64705844 0-305.70352969-171.52941187-351.67058812-232.74352968a31.62352969 31.62352969 0 0 0-39.52941188-9.31764657" p-id="1348"></path><path d="M126.19294156 540.00941187c-11.63294156-10.30588219-12.70588219-28.23529406-2.4-39.86823562l56.18823469-63.38823469c10.30588219-11.57647031 28.23529406-12.70588219 39.81176531-2.4 11.66117625 10.30588219 12.7623525 28.23529406 2.42823469 39.86823469l-56.18823469 63.38823563c-10.2776475 11.60470594-28.23529406 12.70588219-39.84 2.4M272 666.24941187a28.32 28.32 0 0 1-10.3623525-38.56941187l42.35294063-73.35529406c7.76470594-13.44 25.12941187-18.07058813 38.56941187-10.33411782 13.44 7.76470594 18.09882375 25.12941187 10.33411781 38.56941188l-42.35294156 73.35529406c-7.76470594 13.44-25.12941187 18.09882375-38.56941188 10.33411782M897.6376475 540.00941187c11.63294156-10.30588219 12.70588219-28.23529406 2.4-39.86823562l-56.18823562-63.38823469c-10.30588219-11.57647031-28.23529406-12.70588219-39.81176438-2.4-11.66117625 10.30588219-12.7623525 28.23529406-2.42823563 39.86823469l56.18823563 63.38823563c10.2776475 11.60470594 28.23529406 12.70588219 39.84 2.4M766.1176475 666.24941187c13.41176438-7.76470594 18.07058813-25.12941187 10.30588219-38.56941187l-42.35294157-73.35529406a28.32 28.32 0 0 0-38.56941187-10.33411782c-13.44 7.76470594-18.07058813 25.12941187-10.33411781 38.56941188l42.35294156 73.35529406c7.76470594 13.44 25.12941187 18.09882375 38.56941188 10.33411782M511.83058812 729.1576475c-15.52941188 0-28.23529406-12.70588219-28.23529406-28.235295v-84.70588219c0-15.52941188 12.70588219-28.23529406 28.23529407-28.23529406s28.23529406 12.70588219 28.23529406 28.23529406v84.70588219c0 15.52941188-12.70588219 28.23529406-28.23529406 28.235295" p-id="1349"></path><path d="M32 32h960v960H32z" fill-opacity="0" p-id="1350"></path></svg>