<svg t="1577694074272" class="icon" viewBox="0 0 1024 1024" version="1.1" xmlns="http://www.w3.org/2000/svg" p-id="1226" width="200" height="200"><path d="M512 512m-72.81777778 0a72.81777778 72.81777778 0 1 0 145.63555556 0 72.81777778 72.81777778 0 1 0-145.63555556 0Z" p-id="1227"></path><path d="M991.14097778 487.72740779c-31.0689189-53.88515555-201.94796999-324.28183666-492.24817778-315.54370446-268.45487445 6.79632555-423.79946667 242.72592555-466.03377778 315.54370446a48.54518557 48.54518557 0 0 0 0 48.54518442c30.58346667 52.91425223 194.18074112 315.54370333 480.11188111 315.54370446h12.13629667c268.45487445-6.79632555 424.2849189-242.72592555 466.03377778-315.54370446a48.54518557 48.54518557 0 0 0 0-48.54518442z m-479.14097778 194.18073998a169.90814777 169.90814777 0 1 1 169.90814777-169.90814777 169.90814777 169.90814777 0 0 1-169.90814777 169.90814777z" p-id="1228"></path></svg>