<svg t="1576650093166" class="icon" viewBox="0 0 1024 1024" version="1.1" xmlns="http://www.w3.org/2000/svg" p-id="4403" width="200" height="200"><path d="M957.216 404.32a32.032 32.032 0 0 0-25.504-21.504l-270.336-41.728-120.8-258.624A32.064 32.064 0 0 0 511.648 64h-0.064a31.968 31.968 0 0 0-28.928 18.336l-121.856 258.016-270.72 40.8a32 32 0 0 0-18.208 53.92l196.448 202.08-46.88 284.8a32 32 0 0 0 47.008 33.248l241.824-133.024 241.312 133.856c4.832 2.624 10.176 3.968 15.52 3.968h0.64a32 32 0 0 0 29.984-43.296l-44.896-278.688 196.928-201.248c8.32-8.544 11.232-21.088 7.456-32.448z" p-id="4404"></path></svg>