<svg t="1576650053449" class="icon" viewBox="0 0 1024 1024" version="1.1" xmlns="http://www.w3.org/2000/svg" p-id="4272" width="200" height="200"><path d="M767.104 959.936a31.904 31.904 0 0 1-15.52-4.032l-241.312-133.856-241.824 133.024a31.936 31.936 0 0 1-47.008-33.248l46.88-284.736-196.448-202.08a31.936 31.936 0 0 1 17.568-53.824l155.072-26.592a32 32 0 0 1 10.816 63.104l-95.168 16.32 165.344 170.08c7.072 7.296 10.272 17.504 8.64 27.488l-38.816 235.68 199.616-109.824a31.872 31.872 0 0 1 30.944 0.064l199.168 110.464-38.016-235.776a32 32 0 0 1 8.704-27.456l164.672-168.256-225.664-34.816a32.064 32.064 0 0 1-24.128-18.08l-99.2-212.384-100.064 211.84a32 32 0 1 1-57.888-27.36l129.152-273.44c5.312-11.2 16.576-18.336 28.928-18.336h0.064a32 32 0 0 1 28.928 18.464l120.8 258.624 270.336 41.728a32.032 32.032 0 0 1 18.016 53.984l-196.928 201.216 45.92 284.864a32.032 32.032 0 0 1-31.584 37.152z" p-id="4273"></path></svg>