<svg t="1577441494451" class="icon" viewBox="0 0 1024 1024" version="1.1" xmlns="http://www.w3.org/2000/svg" p-id="4324" width="200" height="200"><path d="M800 96H224C171.072 96 128 139.072 128 192v640c0 52.928 43.072 96 96 96h576c52.928 0 96-43.072 96-96V192c0-52.928-43.072-96-96-96z m-127.008 416.864a32 32 0 0 1-32 32H287.776a32 32 0 0 1 0-64h353.216a32 32 0 0 1 32 32zM511.104 256a48 48 0 1 1 0 96 48 48 0 0 1 0-96zM303.712 256a48 48 0 1 1 0 96 48 48 0 0 1 0-96z m431.168 479.52H287.648a32 32 0 1 1 0-64h447.232a32 32 0 1 1 0 64z m-15.648-383.488a48 48 0 1 1 0-96 48 48 0 0 1 0 96z" p-id="4325"></path></svg>