<svg t="1576652965651" class="icon" viewBox="0 0 1024 1024" version="1.1" xmlns="http://www.w3.org/2000/svg" p-id="4423" width="200" height="200"><path d="M812.8 960H217.6c-60.8 0-112-48-118.4-108.8v-3.2l19.2-531.2c0-16 16-32 32-32h128c19.2 0 32 12.8 32 32s-12.8 32-32 32h-96l-19.2 496c3.2 28.8 25.6 51.2 54.4 51.2h595.2c28.8 0 51.2-22.4 54.4-48L844.8 352h-99.2c-19.2 0-32-12.8-32-32s12.8-32 32-32h128c16 0 32 12.8 32 32l22.4 524.8v3.2c-3.2 64-54.4 112-115.2 112z m-201.6-611.2h-192c-19.2 0-32-12.8-32-32s12.8-32 32-32h192c19.2 0 32 12.8 32 32s-16 32-32 32z m124.8 128c-19.2 0-32-12.8-32-32V300.8c0-96-83.2-172.8-182.4-172.8h-19.2C403.2 128 320 204.8 320 300.8v144c0 19.2-12.8 32-32 32s-32-12.8-32-32V300.8C256 169.6 368 64 502.4 64h19.2C659.2 64 768 169.6 768 300.8v144c0 16-12.8 32-32 32zM585.6 800c-9.6 0-19.2-3.2-25.6-12.8L448 640l-64 140.8c-6.4 16-25.6 22.4-41.6 16s-22.4-25.6-16-41.6l86.4-188.8c3.2-9.6 16-16 25.6-19.2 12.8 0 22.4 3.2 28.8 12.8l112 150.4 67.2-144c6.4-16 25.6-22.4 41.6-16s22.4 25.6 16 41.6l-89.6 192c-6.4 9.6-16 16-25.6 16h-3.2z" p-id="4424"></path></svg>