<svg t="1576652933270" class="icon" viewBox="0 0 1024 1024" version="1.1" xmlns="http://www.w3.org/2000/svg" p-id="4305" width="200" height="200"><path d="M905.6 316.8c0-16-16-32-32-32H768c-6.4-124.8-115.2-224-246.4-224h-19.2C371.2 64 262.4 163.2 256 288H150.4c-16 0-32 12.8-32 32l-19.2 524.8v3.2c3.2 64 54.4 112 115.2 112h595.2c60.8 0 112-48 118.4-112v-3.2l-22.4-528zM502.4 128h19.2c96 0 176 70.4 182.4 160H320c6.4-89.6 86.4-160 182.4-160zM288 480c-19.2 0-32-12.8-32-32v-64c0-19.2 12.8-32 32-32s32 12.8 32 32v64c0 16-16 32-32 32z m412.8 108.8l-89.6 192c-3.2 12.8-12.8 19.2-25.6 19.2h-3.2c-9.6 0-19.2-3.2-25.6-12.8L444.8 640l-64 140.8c-6.4 16-25.6 22.4-41.6 16s-22.4-25.6-16-41.6l86.4-188.8c3.2-9.6 16-16 25.6-19.2 12.8 0 22.4 3.2 28.8 12.8l112 150.4 67.2-144c6.4-16 25.6-22.4 41.6-16 19.2 3.2 25.6 22.4 16 38.4zM768 448c0 19.2-12.8 32-32 32s-32-12.8-32-32v-64c0-19.2 12.8-32 32-32s32 12.8 32 32v64z" p-id="4306"></path></svg>