<svg t="1577097953461" class="icon" viewBox="0 0 1024 1024" version="1.1" xmlns="http://www.w3.org/2000/svg" p-id="9688" width="200" height="200"><path d="M789.17517333 534.126336c-1.1111744-123.17441173 104.12399787-182.51634773 108.93544747-185.47875093-59.3201056-83.478864-151.3761856-95.0839744-184.21367147-96.35996907-78.33013227-7.55227307-153.1302688 44.68382507-192.7854304 44.68382507-39.79160213 0-101.03606933-43.430752-166.23950293-42.2006016-85.44361173 1.25307307-164.22891093 48.08938773-208.303664 122.03485866-88.643968 149.1538368-22.5640384 369.81794773 63.9962048 490.55389014 42.32612693 59.183664 92.71099627 125.58886933 159.0463424 123.15039893 63.84229973-2.3009376 87.82423147-39.9335008 164.91875627-39.9335008 77.0432224-0.11461013 98.7820672 39.9105792 166.10851946 38.68152 68.62100373-1.41352747 112.18819627-60.4138144 154.27418774-119.73392 48.37427627-68.4769216 68.39833173-134.99673707 69.4287328-138.39029333C922.94175893 730.40355947 790.70112747 681.5042592 789.17517333 534.126336z" p-id="9689"></path><path d="M647.05949973 188.86773653c35.08166507-41.18766507 58.84201707-98.400032 52.3714464-155.4421216-50.65229227 1.98112107-112.13689493 32.7468896-148.31117866 73.77410027-32.6726656 36.45917227-60.99450667 94.74341867-53.20973974 150.66887573C554.32012373 262.1058976 611.89815253 230.0990624 647.05949973 188.86773653z" p-id="9690"></path></svg>