<svg t="1576652398529" class="icon" viewBox="0 0 1024 1024" version="1.1" xmlns="http://www.w3.org/2000/svg" p-id="5245" width="200" height="200"><path d="M736 128a254.944 254.944 0 0 0-176.384 70.464c-4.576 4.32-28.672 28.736-47.328 47.68L464.96 199.04A254.656 254.656 0 0 0 288 128c-141.152 0-256 114.848-256 256 0 82.432 41.184 144.288 76.48 182.496l316.896 320.128C450.464 911.68 478.304 928 512 928s61.568-16.32 86.752-41.504l318.944-322.464C955.904 516.384 992 471.392 992 384c0-141.152-114.848-256-256-256z" p-id="5246"></path></svg>