<svg t="1576652334040" class="icon" viewBox="0 0 1024 1024" version="1.1" xmlns="http://www.w3.org/2000/svg" p-id="5127" width="200" height="200"><path d="M512 928c-28.928 0-57.92-12.672-86.624-41.376L106.272 564C68.064 516.352 32 471.328 32 384c0-141.152 114.848-256 256-256a254.4 254.4 0 0 1 147.296 46.592 32 32 0 1 1-36.896 52.32A190.528 190.528 0 0 0 288 192c-105.888 0-192 86.112-192 192 0 61.408 20.288 90.112 59.168 138.688l315.584 318.816c15.968 15.968 28.864 22.304 41.248 22.496 12.704 0.192 24.928-6.176 41.376-22.624l316.672-319.904C896.064 493.28 928 445.696 928 384c0-105.888-86.112-192-192-192-48.064 0-94.08 17.856-129.536 50.272l-134.08 134.112a31.968 31.968 0 1 1-45.248-45.248l135.104-135.136A256.224 256.224 0 0 1 736 128c141.152 0 256 114.848 256 256 0 82.368-41.152 144.288-75.68 181.696l-317.568 320.8C569.952 915.328 540.96 928 512 928z" p-id="5128"></path></svg>