<svg t="1576652513511" class="icon" viewBox="0 0 1024 1024" version="1.1" xmlns="http://www.w3.org/2000/svg" p-id="5481" width="200" height="200"><path d="M512 608c-105.888 0-192-86.112-192-192s86.112-192 192-192 192 86.112 192 192-86.112 192-192 192z m0-320c-70.592 0-128 57.408-128 128s57.408 128 128 128 128-57.408 128-128-57.408-128-128-128z m0 672a31.936 31.936 0 0 1-23.136-54.08C575.392 815.2 800 550.336 800 416c0-158.784-129.184-288-288-288-158.784 0-288 129.216-288 288 0 75.616 72.544 206.08 204.256 367.424a31.968 31.968 0 1 1-49.568 40.48C233.568 646.176 160 508.928 160 416 160 221.92 317.92 64 512 64s352 157.92 352 352c0 187.36-315.424 520.032-328.832 534.08A31.968 31.968 0 0 1 512 960z" p-id="5482"></path></svg>