<svg t="1577093354669" class="icon" viewBox="0 0 1024 1024" version="1.1" xmlns="http://www.w3.org/2000/svg" p-id="877" width="200" height="200"><path d="M512 962A430.25540273 430.25540273 0 0 1 320.4479375 146.87229834a29.46954815 29.46954815 0 1 1 25.93320205 52.45579599 371.31630644 371.31630644 0 1 0 330.05893887 0 29.46954815 29.46954815 0 1 1 25.93320293-52.45579599A430.25540273 430.25540273 0 0 1 512 962z" p-id="878"></path><path d="M512 461.01768154a29.46954815 29.46954815 0 0 1-29.46954815-29.46954815V91.46954815a29.46954815 29.46954815 0 0 1 29.46954815-29.46954815 29.46954815 29.46954815 0 0 1 29.46954815 29.46954815v340.07858524a30.05893916 30.05893916 0 0 1-29.46954815 29.46954815z" p-id="879"></path></svg>