<svg t="1577681224970" class="icon" viewBox="0 0 1024 1024" version="1.1" xmlns="http://www.w3.org/2000/svg" p-id="1034" width="200" height="200"><path d="M248.62526826 454.90041318l-1.41474111-4.35934423-1.13323184-5.71562491-0.79056386-3.12987743v-12.86307862l1.35897891-5.03748457 1.41474023-5.38015254 1.81137217-5.59060927 2.46343007-6.25436016 3.25489307-6.4953958 4.58509131-6.50978614v-4.57160097l0.45239326-4.26041104 0.67814033-5.81725635 1.98225615-6.48100547 1.8122713-7.04852138 1.44262177-3.25489307 1.67016709-3.01475566 2.15044278-3.35292715 2.32132587-2.47871954v-16.10358134l1.35987803-8.29237764 1.35897891-9.62527412 2.43195029-11.51849091 3.34213418-11.97358154 2.4895125-6.61051846 2.46343007-7.15914581 2.68647804-6.71035078 3.22971064-7.1591458 3.28367373-7.83998438 3.7909292-7.37320078 4.24602158-7.84088437 5.3765543-7.84268262 2.46343008-4.47266777 2.6612956-3.69199688 5.74440557-8.2779873 5.89010625-8.28068555 6.7355332-8.50373437 7.18792647-8.295975 7.81390283-8.15027432 8.15117344-8.40839941 9.85102031-9.05685908 6.28403994-5.48987784 7.61423731-5.930579 7.72756083-5.25153955 8.37602139-5.03748457 8.03964903-4.47176865 9.0577582-3.69379512 9.62257588-4.59948164 9.56861279-3.1280792 9.56681367-3.24050274 10.30161534-3.24140273 10.30341445-2.46253008 10.86913037-2.02362802 10.9824539-1.78349063 10.81067081-1.45701211 10.86913037-1.47230244 11.54996982-0.65025879h34.13455664l11.37908496 1.44262178 11.43484717 1.35897891 11.66329248 1.23126503 10.81066992 2.57585361 11.43394805 2.44813975 10.73062442 2.78811036 11.74423711 3.14246865 10.75580771 3.80621953 10.30431357 4.35934424 10.98245391 4.59948164 10.0479876 5.03838456 9.73589941 5.57531983 9.53893213 6.17071641 8.26629609 5.70393193 3.7909292 3.24050362 4.02027452 2.35010654 7.64301796 6.4953958 6.45132569 6.26964961 6.3973626 6.49539579 6.28403993 7.16184405 5.15350547 6.93339961 6.11225596 7.16184404 4.30448203 7.71227139 4.32966445 6.83716377 4.61117373 7.95330791 3.79452656 6.93339961 6.45492393 14.66275869 3.16765195 7.59984697 2.46343008 7.04942051 2.4643292 7.61333819 2.20530499 7.1591458 1.58562509 6.15632607 1.98225616 7.27516758 3.51031992 12.97910039 2.23408476 11.3071333 1.4444209 10.96716446 1.24565537 8.83201201 1.98225616 13.43059365 0.45239326 2.13605244 1.5856251 2.4643292 4.24332245 6.93249961 2.71885693 4.68672187 2.43464942 4.93945137 3.11278975 5.24884131 2.71885606 6.28313994 1.75291171 6.48460371 1.92469483 7.04582226 1.47230244 7.26077725 0.67813945 3.57867422 0.56841504 4.37373457v3.80891777l-0.56841504 3.80531953v4.71280518l-1.13053272 4.57070098-2.03711923 8.84640146-2.32132588 4.47266777-1.69894864 5.03748458v1.23126503l0.79146387 1.57123477 2.32132588 3.69199687 10.07766738 14.88940489 7.97939034 11.18211855 3.79452656 7.50091465 5.14990898 8.16556377 4.47266777 8.95882588 5.15350547 9.60818554 5.15080811 10.75580773 5.80196602 12.1993286 3.25489306 7.48652432 3.00036621 7.27516758 2.6055334 7.72756084 2.54707295 6.9324996 1.92469483 7.27516758 1.97955791 6.83716378 2.49310985 13.31547275 1.97955792 13.64284951 1.35897802 12.08690508v17.01016787l-0.90658476 6.05829199-1.30141758 10.40234766-1.81137217 9.39592969-2.77461914 8.4929414-1.01721005 3.4662498-1.92469483 4.1479875-1.64318642 2.91582335-2.1504419 3.57957334-1.92469482 2.25207246-2.43464942 2.90143301-2.15044189 2.3474083-2.32132588 2.00833857-2.77372002 1.23216504-2.49041162 1.23126504-2.03711836 0.66734737h-3.11638711l-2.00833857-0.66734737-3.81970987-1.89501504-1.75650908-1.23216504-1.81137217-1.34458857-2.0092377-1.79698184-2.01103681-2.00833769-3.33943593-3.69559424-3.96181319-5.24974131-3.11278975-5.39364288-3.11548799-4.3449539-3.02644775-5.03748457-4.27480137-8.95882588-4.81173838-9.29789648-0.56841415-0.3246794h-0.79056387l-1.98315527 1.45791124-1.12963448 2.44903974-1.86983262 3.02644776-3.28367373 9.07125029-4.92506015 12.86667597-6.33800303 15.43983135-4.75687529 7.72666172-5.00870391 8.05224023-5.91528955 9.05775909-6.28403906 8.85989355-3.22881065 4.02027364-3.90425361 4.35934424-8.97321533 8.84280497 0.79146298 0.7797709 1.21687471 1.24655538 4.47266778 2.67208769 18.6830332 8.95882676 8.15027344 4.58599042 7.7563415 4.47176778 7.69788106 5.60589961 6.84885674 5.81725547 3.34213329 2.57315537 2.4895125 3.01475654 2.54797208 3.48333838 2.15044189 3.80621865 1.13323183 3.12718008 1.41474112 3.80891778 0.5648168 3.24050273 0.68173769 3.8053204-0.68173769 2.56236241v2.57675274l-0.5648168 2.6864789-1.41474112 2.46343008-0.56481679 1.91030449-1.24655449 2.33571622-3.39699727 4.60038076-3.11278975 3.69199687-2.43464941 2.78900948-2.03711836 2.02272802-5.15350635 3.79362832-5.82894755 3.27018252-6.22827686 3.12718008-6.62310967 3.01385654-7.47213399 2.90143301-3.96271318 1.24655449-3.56698213 0.98843027-8.60266758 2.02542628-8.94533466 1.89591503-8.94353643 1.9103045-9.73859678 1.57123476-10.07586914 0.43980205-10.30341357 1.22946592h-31.98411474l-11.54727159-0.66375-10.75580771-1.00551797-11.54996895-1.57123476-11.49240761-1.23216417-12.11208838-1.68365918-11.71905469-2.91582246-11.43664541-2.23498476-11.37638672-3.24050274-11.66329248-4.14708838-11.43484717-3.4671498-5.9989333-1.99664561-5.38015166-1.9246957-3.39699727-1.33019824-3.33853593-0.66375H534.67542617l-10.98155479-0.79416123-5.57711894-0.5648168-7.16184404-0.79146387-4.58509131 4.14439014-6.28403907 3.92134131-8.49204227 4.1479875-9.39682882 5.15080811-5.7156249 2.8024998-5.94496933 2.21969531-13.19045713 5.38015254-7.16184404 1.79698096-7.50091466 2.00833857-10.41403886 2.01193594-6.50978702 0.55042646-6.9073163 0.56481768-7.19062471 0.79416123-8.37692051 0.3390706H369.06351084l-19.33239287-0.3390706-18.73879453-1.90940537-9.50925323-1.33109736-9.17108173-1.35897891-8.94443555-1.33019824-8.94443554-1.79698096-8.29237765-2.69007627-8.29507675-1.89591503-7.4721331-3.01385655-7.07550294-2.8024998-6.56734745-3.14246953-5.71562491-3.46624981-5.71832314-4.1479875-1.92469483-2.00833858-2.54797295-2.44903974-1.92469482-2.1504419-1.75650908-2.44903886-1.58202686-2.46432921-1.24655537-2.46073183-1.7825915-5.25153955-0.65205792-2.69007627-0.79056386-3.02554863v-2.78810947l0.79056386-3.1280792v-3.15596075l0.65205792-3.1271792v-6.27234784l0.31028994-3.35382627 1.47230156-3.80531954 1.24655537-3.80891777 2.26376456-4.58509131 1.64048818-1.78259151 1.35897802-2.02272802 3.56518301-4.35934424 2.83128047-2.237683 2.66129561-1.57123477 2.46343007-2.00833857 3.9330334-1.23126505 3.11278975-1.89591503 3.90695097-2.02272803 4.4726669-1.33109736 4.47266777-1.35897891 5.14990811-1.1188415 4.92416191-0.66375 5.8316458-0.77977091 6.28403995-0.45239326 1.66926797-0.56481767h0.33906972l0.79416211-0.68083858v-0.76268232l-1.13323183-1.57123476-3.36731661-1.57033565-8.3769205-7.27516758-5.60500049-4.4726669-6.50978614-5.70393281-6.56824658-6.36768281-6.84885674-8.17905498-7.81120371-9.17108174-2.944604-4.94124961-3.90695098-5.13641777-3.33943594-5.94407021-2.9994662-6.48100547-4.07513672-6.15632608-2.66039649-7.0494205-3.14246953-7.04582315-3.14246953-7.84268261-2.32132588-7.48742344-2.1504419-9.29789561-0.68083857-0.33907061h-0.64935967l-0.33906973-0.66375h-0.79416211l-1.33019823 0.66375-0.67903946 0.33907061-0.90658476 1.57123476-0.33907062 1.89861241-0.67814032 1.6836583-1.19169141 2.78810947-3.84939053 6.83446641-1.97865879 4.1479875-3.14246865 3.57957334-3.3682166 4.3449539-3.68120391 4.82522872-3.90695185 4.26131103-4.58509131 4.13269805-4.27210312 3.90425274-4.66963419 3.04353632-5.15350547 3.24050274-4.9241619 1.89861328-5.83074669 1.45791123-5.71652402 0.55042646H156.29656661l-1.30141758-0.55042646-1.02080742-2.25207334-1.69804864-1.10445117-2.20800323-5.3765543-1.35717977-2.91582335-1.47230157-4.1479875-1.21777471-4.3449539-0.65205791-4.25771367-1.81137216-9.73859678-0.67813946-5.7156249v-18.79635586l0.67813946-13.98192099 1.13323183-7.16184405 1.33019824-7.38759111 1.21777471-7.93891758 2.15044189-7.38849023 2.43464942-8.51812471 2.48951162-8.26629521 3.34213418-8.51812471 3.14157041-8.16826201 4.33056358-8.27798819 4.07513672-8.94443555 4.9241619-8.39041084 5.80286514-9.07214941 5.91618955-8.16826201 6.17071553-9.05685908 5.15080811-6.26964961 6.59612812-7.27516758 6.93339873-7.27156934 3.22881065-3.46984716 3.93303339-3.91864395 5.68954248-4.93855137 5.83164669-5.02579247 9.50925234-8.50463351 7.18792646-5.25153954z" fill="#ffffff" p-id="1035"></path><path d="M403.60099414 885.57251768l-55.48158281-0.42181348-47.07768164-6.01961923-11.50410058-2.39957315-7.62143204-2.47152393-10.00032012-2.48771338-23.38954189-10.1037498-6.79759102-4.18666114-12.7092832-10.865533-4.74788056-5.93777461-4.95384171-9.05326172-4.05804902-14.0124999 2.01823242-27.51414522 7.35341397-17.58577675 9.92836846-11.53018302 10.14512167-7.60074609 7.39478672-2.98147852 6.68426749-3.14606688 3.31605175-0.98393292-8.56849042-8.36792666-16.10807872-19.40344453-2.49220987-4.17137167-4.5725001-6.26695138-11.42225595-20.7480331-4.10931387-10.27373379-11.43214892 13.66173721-10.8034752 9.5317374-12.78123398 7.80131074-6.76701211 2.47692042-8.15656992 1.85903964-10.4536125 0.62327724-5.61309433-1.80777392-5.68504601-2.4148626-1.64768203-3.64612851-1.95707373-1.26724044-7.18882558-17.73507568-1.95707373-7.25538076-3.32684384-22.09711817v-18.79635585l0.87510673-16.4525458 4.12010596-24.41934317 7.52879619-25.55707236 7.19871855-18.21894785 13.69771348-26.29906875 6.12844453-9.59379609 18.33227139-25.00664503 22.55490703-23.84823075 23.17278955-20.10406993-1.20518349-6.77690507v-14.95955743l5.3657622-18.79095937 3.3682166-8.46596075 6.25166104-12.16335321 1.73042665-13.02316964 6.54036593-19.8621334 4.15068574-6.93160048 0.20596025-12.87926807 2.85286553-18.62637099 2.43105205-11.51489356 4.01667714-14.29041094 7.75544151-20.77861201 10.93748467-23.73940459 5.25243867-9.53173741 22.28778897-32.80256015 14.86152334-17.9878043 16.56137196-17.20443515 17.08661515-15.44882608 8.30137148-6.49899316 8.54870362-5.85503086 19.34228671-11.07149326 9.06315469-3.69739336 10.68025869-4.98981621 30.67100508-9.95894825 10.30971006-2.46163095 22.98751435-4.0319666 23.31759112-3.11009151 11.55536543-0.65385615 36.02687343-0.02608242 37.14931318 4.46996953 46.32579053 11.42675244 10.75221036 3.80532042 23.11162997 9.73230117 10.041692 5.03658545 10.50487822 5.98903945 28.00341299 19.14082206 7.64211885 6.49899405 13.88298779 13.71839853 7.70417578 8.82661554 4.8306252 6.49899404 7.54948125 9.3158833 17.70449677 30.77443564 9.74309414 22.56030351 7.65201182 23.24024297 7.47753047 27.99801739 2.23498477 11.30893242 4.58329218 32.4733834 13.63655478 23.95076132 3.46085333 8.41919151 6.10775859 25.56246885 0.84452784 12.30275917-0.56661593 3.80531954-0.46318623 7.35341484-5.2425457 18.36374942 17.99230166 26.18574609 3.45006035 6.83356641 5.52045762 8.90846015 24.19269698 49.7605623 3.12088446 7.54408477 9.9796333 31.901371 2.49221075 13.317271 3.60475576 28.63658495-0.17538135 19.34678233-4.62466406 28.43062383-4.4798625 13.71300293-8.04324727 14.26432851-12.28656972 12.71917706-13.35774288 5.45300244h-8.16736289l-6.48820107-2.31233203-10.91679785-6.85964971-4.65524385-4.40791084-4.77846035-5.34507627-5.03658545-6.87943565-4.33596006-6.95228642-0.07195166 0.2158541-7.65201182 18.07504453-15.90211845 25.19192022-10.10374893 13.7291915 6.46751514 3.10019766 18.37364239 10.53096064 8.6413412 6.34429863 12.13277344 10.37086787 6.61231758 8.78524366 3.25489307 6.21029004 3.275579 9.63966357 1.85364316 10.39695117-2.47152393 12.85318565-5.46919188 10.39155468-14.34707315 16.46333789-6.78679893 4.84591466-12.68859638 6.74092968-15.49019795 6.52417647-9.02178369 2.73414638-27.40621817 6.05559375-12.34862754 1.90580801-9.48586904 0.41192051-11.58684346 1.27173779H677.38436914l-23.77088349-1.73582314-37.51986094-4.88728653-11.71006085-2.9194207-11.94749912-2.37438984-11.37009111-3.23870449-38.43634043-12.92063906-9.09463359-0.04137188-17.2512044-1.4264332-1.53435937 1.06128017-7.72396347 4.71730166-24.99585206 12.69849023-20.83527422 8.1313875-15.50009091 3.99059385-12.09140156 2.24487862-30.00185948 2.31323115z m-52.93810723-31.96342881l52.29954053 0.32468027 27.13820009-2.12166211 22.30847491-5.20117295 22.82292598-9.53713388 21.56647851-11.68937491 8.83650849-7.9712956 47.64429757 4.58868867 14.01699639 4.97452763 11.03012138 3.3367377 12.36931348 4.37733194 9.74309414 2.74493935 10.80347519 2.11086827 11.67948106 2.88884179 44.38940449 5.29381055 10.97885654 0.62327724 30.14576104-0.02608154 10.54624922-1.21507647 9.16658525-0.39663105 25.94381045-5.08785029 14.65556309-3.87727119 12.30725566-5.22185977 10.00032012-5.30910088 4.24332246-3.33134121 7.13756074-9.00109687 1.3284-3.22881065-0.07195166-5.46379629-2.68827715-6.29842939-2.71885693-3.5948628-15.52077686-12.20472509-15.03690468-8.55859746-25.24318506-12.87387159-14.60429825-14.6501666 26.20103555-27.03027392 11.30893242-16.67469464 8.8679874-14.33178281 19.04278887-45.98042519 9.42381123-6.94688994h9.41301739l8.48664667 4.40791172 2.70896309 4.46457304 11.29813946 21.8704711 15.45871904 19.74881074 1.45251562-1.57573213 5.75699678-8.20873388 1.85364317-4.85580762 2.60553339-7.98658506 1.62699698-8.43538096 1.91570097-18.50225537v-11.08678359l-3.17214931-24.3419959-2.24487774-11.92141758-8.63054824-27.38013574-5.78847568-13.51243916-19.86752989-40.05884004-5.46919189-8.80053311-3.2441001-6.42704238-21.72117305-32.41132559-1.69894863-3.36281923v-7.59535049l4.88189004-12.42597568 2.30693643-9.83033438 0.13400859-12.75065507-5.10853623-21.15455802-1.8743291-4.32066972-14.84083828-25.35111211-1.06128018-4.97992413-6.83896289-44.18883984-13.72919238-46.62978486-8.89856632-20.50070098-15.87063954-27.33426738-5.77768272-6.82816992-4.76676826-6.41804854-11.63810918-12.50871943-11.9780789-10.89611192-5.13911602-3.29086933-3.17214932-2.70896309-16.73585332-11.1488414-9.01188984-5.12922217-8.7753498-4.37193545-20.86585313-8.78524366-9.24842989-3.24410097-21.79312383-5.75249942-20.92791093-4.70650956-32.81335225-3.84129492H516.78925332l-10.02100605 0.59179833-31.65943536 4.56800274-19.47539531 4.1246042-27.77676767 9.07394765-8.69260606 4.15608223-9.00109775 3.70278897-15.15022734 8.78524365-6.97297237 4.77396387-12.37920733 10.25304784-9.56771279 8.7951375-15.24286581 15.8553501-12.94582237 15.67547139-21.01065469 31.00557832-7.2095124 13.63655479-13.46117344 33.71454141-3.14156953 11.30353593-2.08028936 9.98503066-2.49221074 16.48941944v21.08260635l-7.7554415 9.55781982-0.65925352 1.48849101-3.23420713 11.55086807-0.86521289 11.41685948v5.01050302l-6.78679892 9.63966445-2.41036523 4.80454278-3.68750039 10.27373379-2.00833859 7.63672236 0.30939083 10.00032012 2.2556707 9.06855117 3.51211816 10.77829278-18.3322705 13.59967939-26.56169122 24.31141699-17.58038027 19.52216367-17.25120351 25.35111211-4.19205762 7.15824669-13.98641748 31.78804745-6.55025889 22.42179844-3.40868935 20.68597442-0.63856671 13.12660019 0.02068594 17.0911125 0.56661593 4.78385596 4.66333769 19.5617373 3.0795126-1.12243886 7.21940537-4.61926846 10.34028896-9.91847461 10.53635625-14.49637207 4.26400928-8.22941983 0.48387217-2.70896396 4.68582276-8.14127959 9.57850575-4.75327793H227.53636631l2.32762148 3.86198174 3.4914331 1.69445127 2.38968018 7.70867402 3.9753044 15.04230117 8.17725586 19.96466397 4.27390224 6.78679805 5.23175274 10.35557929 6.50888701 9.54253037 13.34785078 15.80948086 11.90612725 10.96356709 13.60507587 10.86553301 3.73876524 1.74031962 6.54036504 9.06855206v12.44666074l-10.02100518 9.24393252-26.79823125 3.76394853-9.08384062 3.18743878-11.61742412 6.49359755-5.29381055 7.40018232-1.89501504 5.69583809-1.16381074 16.76733223 2.12166123 6.54036504 2.8942374 3.92943604 3.51211905 3.47614365 8.55859745 5.66975566 18.32237755 7.75004502 8.42458798 1.98765263 7.41547266 2.40496963 25.37719366 4.1659752 9.38243935 1.31850615 17.47695058 1.77179854z" fill="#ffffff" p-id="1036"></path></svg>