<svg t="1576651594120" class="icon" viewBox="0 0 1024 1024" version="1.1" xmlns="http://www.w3.org/2000/svg" p-id="838" width="200" height="200"><path d="M772.096 942.08H255.31733333c-79.18933333 0-143.36-64.17066667-143.36-143.36V281.25866667c0-79.18933333 64.17066667-143.36 143.36-143.36h252.58666667c19.11466667 0 34.13333333 15.01866667 34.13333333 34.13333333s-15.01866667 34.13333333-34.13333333 34.13333333h-252.58666667c-41.64266667 0-75.09333333 33.45066667-75.09333333 75.09333334V798.72c0 41.64266667 33.45066667 75.09333333 75.09333333 75.09333333h517.46133334c41.64266667 0 75.09333333-33.45066667 75.09333333-75.09333333V536.576c0-19.11466667 15.01866667-34.13333333 34.13333333-34.13333333s34.13333333 15.01866667 34.13333334 34.13333333V798.72c0 79.18933333-64.85333333 143.36-144.04266667 143.36zM882.00533333 351.57333333c-19.11466667 0-34.13333333-15.01866667-34.13333333-34.13333333V206.16533333h-114.00533333c-19.11466667 0-34.13333333-15.01866667-34.13333334-34.13333333s15.01866667-34.13333333 34.13333334-34.13333333h148.13866666c19.11466667 0 34.13333333 15.01866667 34.13333334 34.13333333v145.408c0 19.11466667-15.70133333 34.13333333-34.13333334 34.13333333z" p-id="839"></path><path d="M502.44266667 585.728c-8.87466667 0-17.74933333-3.41333333-23.89333334-10.24-13.65333333-13.65333333-13.65333333-34.816 0-48.46933333L834.90133333 170.66666667c13.65333333-13.65333333 34.816-13.65333333 48.46933334 0s13.65333333 34.816 0 48.46933333L526.336 576.17066667c-6.82666667 6.144-15.01866667 9.55733333-23.89333333 9.55733333z" p-id="840"></path></svg>