<svg t="1577098406937" class="icon" viewBox="0 0 1024 1024" version="1.1" xmlns="http://www.w3.org/2000/svg" p-id="4077" width="200" height="200"><path d="M952.832 352.768a28.192 28.192 0 0 0-1.888-6.688L875.936 159.36c-12.96-38.592-48.832-62.56-93.952-62.56H255.488c-44.224 0-78.592 23.52-91.04 60.704l-80.64 190.528a40.608 40.608 0 0 0-1.152 4.48 175.744 175.744 0 0 0 84.48 210.24c23.648 12.672 51.52 19.072 82.816 19.072h0.096a175.2 175.2 0 0 0 134.304-62.688 175.296 175.296 0 0 0 133.664 62.4 174.656 174.656 0 0 0 132.96-62.56 174.848 174.848 0 0 0 134.624 62.496c31.936-0.192 60.288-6.88 84.16-20a176 176 0 0 0 83.072-208.704z m-186.4 31.2H254.4a32 32 0 0 1 0-64h512.032a32 32 0 1 1 0 64zM895.072 640a32 32 0 0 0-32-32 29.76 29.76 0 0 0-9.248 1.888c-23.712 9.376-54.048 14.432-76.928 13.184-50.432-2.688-88.864-12.736-125.888-44.256a206.72 206.72 0 0 1-132.704 49.312c-50.304-0.32-97.152-12.928-133.856-44.128-36.928 31.488-84.064 46.816-134.272 46.816h-0.192c-30.656 0-47.936-5.824-75.84-16.128-0.768-0.384-1.568-0.576-2.368-0.864l-3.744-1.376s-4.608-0.8-7.136-0.8h-0.064a32 32 0 0 0-31.936 32.064l0.224 171.488a81.984 81.984 0 0 0 81.984 81.824l602.176-0.384a82.24 82.24 0 0 0 81.888-82.048L895.072 640z" p-id="4078"></path></svg>