<svg t="1577680285709" class="icon" viewBox="0 0 1024 1024" version="1.1" xmlns="http://www.w3.org/2000/svg" p-id="4681" width="200" height="200"><path d="M728.864 497.056c-12.48-3.712-29.152-6.752-22.624-22.944 14.144-35.136 15.744-73.792 0.416-95.424-28.736-40.576-99.36-29.472-189.44 7.808 0-0.064-28.288 12.224-21.056-9.952 13.856-44.032 11.776-80.896-9.792-102.208-48.896-48.352-178.88 1.824-290.368 111.936C112.48 468.8 64 556.256 64 631.84c0 144.608 187.68 232.544 371.296 232.544 240.704 0 395.776-139.104 395.776-248.832 0-66.272-51.456-102.944-102.208-118.496z m-293.056 315.52c-146.528 14.272-272.992-51.168-282.496-146.208s101.568-183.68 248.096-197.984c146.528-14.304 273.024 51.136 282.496 146.144 9.472 95.072-101.568 183.712-248.096 198.048zM897.632 235.136c-60.096-62.496-148.704-86.304-230.496-69.984h-0.032c-18.944 3.808-30.976 21.28-26.944 38.976 4.032 17.728 22.656 29.056 41.568 25.28 58.176-11.584 121.152 5.376 163.872 49.76 42.656 44.384 54.272 104.928 35.968 157.984-5.952 17.28 4.128 35.776 22.592 41.376 18.368 5.568 38.144-3.872 44.096-21.12v-0.096c25.664-74.656 9.472-159.744-50.624-222.176m-89.728 81.952c-29.024-31.2-71.872-43.04-111.456-34.88a29.024 29.024 0 0 0-23.008 34.432 29.888 29.888 0 0 0 35.488 22.24v0.032a58.496 58.496 0 0 1 54.496 17.024c14.208 15.264 18.016 36.032 11.936 54.272h0.032a28.8 28.8 0 0 0 19.264 36.512c15.744 4.864 32.608-3.424 37.696-18.688a110.624 110.624 0 0 0-24.448-110.944m-322.976 186.976c-71.808-18.304-152.96 16.736-184.128 78.656-31.744 63.168-1.056 133.28 71.488 156.192 75.136 23.712 163.68-12.64 194.464-80.8 30.368-66.624-7.552-135.264-81.824-154.048z m-54.848 158.464c-14.592 22.336-45.824 32.128-69.376 21.824-23.2-10.144-30.048-36.096-15.456-57.856 14.432-21.696 44.608-31.36 67.968-21.952 23.648 9.664 31.2 35.424 16.864 57.984z m48.096-59.2c-5.28 8.64-16.928 12.832-26.08 9.216-8.992-3.552-11.808-13.248-6.688-21.728 5.248-8.448 16.48-12.608 25.44-9.184 9.088 3.168 12.352 12.96 7.328 21.696z" p-id="4682"></path></svg>