<svg t="1577680234236" class="icon" viewBox="0 0 1024 1024" version="1.1" xmlns="http://www.w3.org/2000/svg" p-id="4562" width="200" height="200"><path d="M665.984 436.96c9.984 0 19.872 0.768 29.664 1.952-26.656-132.064-159.328-230.144-310.752-230.144-169.312 0-308 122.784-308 278.688 0 89.984 46.144 163.904 123.232 221.248l-30.816 98.592 107.68-57.44c38.528 8.096 69.44 16.416 107.872 16.416 9.664 0 19.264-0.512 28.768-1.312a258.4 258.4 0 0 1-9.504-68.672c0-143.168 115.552-259.328 261.856-259.328z m-165.6-88.864c23.2 0 38.56 16.256 38.56 40.896 0 24.544-15.36 41.024-38.56 41.024-23.072 0-46.24-16.448-46.24-41.024 0-24.64 23.168-40.896 46.24-40.896z m-215.552 81.92c-23.072 0-46.368-16.448-46.368-41.024 0-24.64 23.296-40.896 46.368-40.896s38.432 16.256 38.432 40.896c0 24.544-15.36 41.024-38.432 41.024z m662.272 262.368c0-131.04-123.232-237.824-261.632-237.824-146.528 0-261.952 106.784-261.952 237.824 0 131.2 115.424 237.792 261.952 237.792 30.688 0 61.6-8.224 92.416-16.416l84.48 49.248-23.168-81.92c61.824-49.344 107.872-114.784 107.872-188.672z m-346.56-41.024c-15.328 0-30.816-16.224-30.816-32.8 0-16.32 15.456-32.736 30.816-32.736 23.296 0 38.56 16.416 38.56 32.736 0 16.576-15.264 32.8-38.56 32.8z m169.44 0c-15.232 0-30.592-16.224-30.592-32.8 0-16.32 15.36-32.736 30.592-32.736 23.072 0 38.56 16.416 38.56 32.736 0 16.576-15.456 32.8-38.56 32.8z" p-id="4563"></path></svg>